<svg xmlns="http://www.w3.org/2000/svg" xmlns:xlink="http://www.w3.org/1999/xlink" width="400" height="400" viewBox="0 0 400 400">
<rect data-name="background" width="100%" height="100%" fill="#f1f1f1"/><g data-name="icon" fill="#ff7852" data="id:7983297" transform="translate(2.0068118773511294,143.8320983850726) scale(1.1233575180662854)">

 <path d="m53.617 73.047c-3.1133 0-6.1328-0.60938-8.9805-1.8125-2.75-1.1641-5.2188-2.8203-7.3438-4.9375-2.125-2.1133-3.7891-4.5781-4.957-7.3242-1.207-2.8438-1.8164-5.8633-1.8164-8.9727s0.60938-6.1328 1.8164-8.9727c1.168-2.7461 2.832-5.2109 4.957-7.3242s4.5898-3.7734 7.3438-4.9375c2.8477-1.2031 5.8633-1.8125 8.9805-1.8125 3.1133 0 6.1328 0.60938 8.9727 1.8125 2.7461 1.1641 5.2109 2.8203 7.3242 4.9375 2.1133 2.1133 3.7734 4.5781 4.9375 7.3242 1.2031 2.8438 1.8125 5.8594 1.8125 8.9727s-0.60937 6.1328-1.8125 8.9727c-1.1641 2.7461-2.8203 5.2109-4.9375 7.3242-2.1133 2.1133-4.5781 3.7734-7.3242 4.9375-2.8438 1.2031-5.8594 1.8125-8.9727 1.8125zm0-5.4219c-2.3828 0-4.6953-0.46484-6.875-1.3828-2.1055-0.88281-3.9922-2.1523-5.6211-3.7695-1.625-1.6172-2.9023-3.5-3.7891-5.6016-0.92188-2.1719-1.3906-4.4883-1.3906-6.8711s0.46875-4.6953 1.3906-6.8711c0.88672-2.1016 2.168-3.9844 3.7891-5.6016 1.6211-1.6172 3.5156-2.8867 5.6211-3.7695 2.1758-0.91797 4.4922-1.3828 6.875-1.3828 4.7188 0 9.1484 1.832 12.473 5.1562 3.3203 3.3242 5.1562 7.7461 5.1562 12.461 0 4.7188-1.832 9.1484-5.1562 12.473-3.3242 3.3203-7.7539 5.1562-12.469 5.1562zm0-33.691c-8.8867 0-16.113 7.207-16.113 16.062 0 8.8555 7.2266 16.066 16.113 16.066 8.8555 0 16.066-7.207 16.066-16.066 0-8.8555-7.207-16.062-16.066-16.062z" fill-rule="evenodd"/>
 <path d="m26.492 45.266h-12.16c-1.7461 0-3.1719-1.4258-3.1719-3.1758 0-4.1367-0.058594-8.0547-0.17969-12.125-0.027344-0.92578-0.09375-1.8984-0.09375-2.8164 0.074219-1.2656 1.0859-2.25 2.293-2.25 0.66797 0 1.3047 0.27344 1.7539 0.74609 0.41406 0.44141 0.625 1.0039 0.58984 1.5898l0.17969 8.7031h2.3906v-8.7383c0-1.2578 1.0352-2.2812 2.3203-2.293 1.2812 0.011719 2.3203 1.0391 2.3203 2.293v8.7383h2.3516l0.21875-8.7031c-0.035157-0.58594 0.17578-1.1523 0.58984-1.5898 0.44922-0.47266 1.0859-0.74609 1.7539-0.74609 1.2109 0 2.2227 0.98828 2.293 2.25 0 0.91797-0.066406 1.8906-0.09375 2.8164-0.12109 4.0742-0.17969 7.9883-0.17969 12.125 0 1.75-1.4258 3.1758-3.1719 3.1758z" fill-rule="evenodd"/>
 <path d="m20.414 75.977c-1.2227 0-2.4062-0.51172-3.2578-1.4023-0.82031-0.85938-1.2383-1.9688-1.1875-3.1211l0.87891-23.434c0.015625-0.41797 0.35938-0.75391 0.78125-0.75391h5.5664c0.41797 0 0.76172 0.33203 0.78125 0.75391l0.92969 23.434c0.054688 1.1523-0.36719 2.2578-1.1797 3.1094-0.85547 0.89453-2.0664 1.4102-3.3125 1.4102zm-0.015624-5.832c0.6875 0 1.2227 0.53516 1.2227 1.1445 0 0.60938-0.53516 1.1445-1.2227 1.1445-0.60938 0-1.1445-0.53516-1.1445-1.1445 0-0.60937 0.53516-1.1445 1.1445-1.1445z" fill-rule="evenodd"/>
 <path d="m20.438 49.219c-1.168 0-2.1211-0.52734-2.1211-1.1719v-3.5664c0-0.64453 0.95312-1.1719 2.1211-1.1719s2.1211 0.52734 2.1211 1.1719v3.5664c0 0.64453-0.95312 1.1719-2.1211 1.1719z" fill-rule="evenodd"/>
 <path d="m85.062 75.977c-1.1055 0-2.1758-0.46484-2.9492-1.2812-0.73828-0.77734-1.1094-1.7734-1.0547-2.8125l0.69141-18.234c0.44531 0.039062 0.89844 0.058593 1.3594 0.058593h5.2656l0.73438 18.18v0.007812c0.03125 1.0586-0.36719 2.0664-1.1172 2.8359-0.76172 0.79297-1.832 1.2422-2.9297 1.2422zm-0.007812-5.0469c0.52344 0 0.91406 0.39062 0.91406 0.84766 0 0.45703-0.39062 0.84766-0.91406 0.84766-0.45703 0-0.84766-0.39062-0.84766-0.84766 0-0.45703 0.39062-0.84766 0.84766-0.84766z" fill-rule="evenodd"/>
 <path d="m87.504 52.148h-4.3945c-1.3672 0-2.6602-0.54297-3.6484-1.5273-0.98828-0.98828-1.5273-2.2812-1.5273-3.6484v-22.168c0-0.42969 0.35156-0.78125 0.78125-0.78125 2.5508 0 4.9453 0.99609 6.7578 2.8125 1.8125 1.8125 2.8125 4.2148 2.8125 6.7578v17.773c0 0.42969-0.35156 0.78125-0.78125 0.78125z" fill-rule="evenodd"/>

  </g><g data-name="business_name" fill="#494f57" data="id:246" transform="translate(127.10986414323575,166.58248103060913) scale(1.0745002254389304)"><path d="M6.68,24.24l0,6.8c1.12-0.12,2.36-0.32,3.44-0.76c4.12-1.64,3.64-6.04-0.36-6.04l-3.08,0z M6.68,34.92l0,2.64c0,1.2,1.2,2.24,2.32,2.44l-9,0c1.04-0.2,2.32-1.24,2.32-2.4l0-14.48c0-1.12-1.28-2.16-2.32-2.36l10.16,0c8.68,0,10.24,10.4,0.48,13.28c-1.28,0.4-2.6,0.68-3.96,0.88z M28.56,23.68l-1.8,8c1.4,0.36,2.6,0.76,3.6,0.88z M25.84,35.72l-0.4,1.84c-0.28,1.2,0.36,2.24,1.4,2.44l-8.28,0c1.12-0.2,2.28-1.4,2.48-2.4l0.52-2.28c-0.64,0.04-1.2,0.24-1.56,0.6c-0.4-2.28-0.12-4.48,2.52-4.8l1.8-8c0.28-1.12,0.12-2.16-0.88-2.36l10.36,0c-1,0.2-1.2,1.24-0.96,2.36c0.96,4.84,1.92,9.68,2.88,14.48c0.2,1,1.36,2.2,2.44,2.4l-8.28,0c1.04-0.2,1.68-1.24,1.44-2.44l-0.16-0.96c-1.2,0.04-3.24-0.48-5.32-0.88z M48.36,20.76c-1.12,0.2-2.32,1.24-2.32,2.4l0,14.4c0,1.2,1.2,2.24,2.32,2.44l-9,0c1.04-0.2,2.32-1.24,2.32-2.4l0-14.48c0-1.12-1.28-2.16-2.32-2.36l9,0z M62.08,33.32c1.12,2.36,2.28,4.88,5.4,4.44c-1.04,2.96-4.16,3.84-6.36,2.04c-1.32-1.08-2.32-3.48-3.28-5.16c-0.52,0.12-1.08,0.2-1.6,0.28l0,2.64c0,1.2,1.2,2.24,2.32,2.44l-9,0c1.04-0.2,2.32-1.24,2.32-2.4l0-14.48c0-1.12-1.28-2.16-2.32-2.36l10.16,0c8.08,0,10,8.96,2.36,12.56z M59.68,30.28c4.12-1.64,3.64-6.04-0.36-6.04l-3.08,0l0,6.8c1.12-0.12,2.36-0.32,3.44-0.76z M77.68,20.76c-1.12,0.2-2.32,1.24-2.32,2.4l0,14.4c0,1.2,1.2,2.24,2.32,2.44l-9,0c1.04-0.2,2.32-1.24,2.32-2.4l0-14.48c0-1.12-1.28-2.16-2.32-2.36l9,0z M87.88,20.76c-1.92,0.36-2.84,1.92-1.84,3.48c1.44,2.32,4.56,3.56,7.24,5.56l0-6.68c0-1.12-1.28-2.16-2.32-2.36l9,0c-1.12,0.2-2.32,1.24-2.32,2.4l0,14.4c0,1.2,1.2,2.24,2.32,2.44l-9,0c2.2-0.4,2.84-2.68,1.92-4.48c-1.32-2.6-4.56-3.88-7.32-5.88l0,7.92c0,1.2,1.2,2.24,2.32,2.44l-9,0c1.04-0.2,2.32-1.24,2.32-2.4l0-14.48c0-1.12-1.28-2.16-2.32-2.36l9,0z M117.04,32.48c0.32,2-0.4,8.84,1.36,9.32c-1,0-4.4,0.12-5-2.2c-1.08,0.48-2.2,0.6-3.32,0.6c-11.84,0-11.88-19.2-0.16-19.76c1.04-0.04,2.12,0.12,3.2,0.48c1.56,0.48,2.32,0.64,3.48-0.04l-2.72,6.36c-0.08-1.88-1.72-2.6-3.84-2.52c-6.24,0.28-6.16,11.28,0.12,11.36c3.72,0.08,3.52-5.2,0.36-5.8c4.96-1,6.2,0.16,6.52,2.2z  M134.28,24.24l0,6.8c1.12-0.12,2.36-0.32,3.44-0.76c4.12-1.64,3.64-6.04-0.36-6.04l-3.08,0z M134.28,34.92l0,2.64c0,1.2,1.2,2.24,2.32,2.44l-9,0c1.04-0.2,2.32-1.24,2.32-2.4l0-14.48c0-1.12-1.28-2.16-2.32-2.36l10.16,0c8.68,0,10.24,10.4,0.48,13.28c-1.28,0.4-2.6,0.68-3.96,0.88z M152.84,36l4.4,0c1.64,0,3.48-1.12,4.64-3.2l-1.4,7.2l-14.32,0c1.04-0.2,2.32-1.24,2.32-2.4l0-14.48c0-1.16-1.28-2.2-2.32-2.4l9,0c-1.12,0.24-2.32,1.28-2.32,2.44l0,12.84z M173.08,23.68l-1.8,8c1.4,0.36,2.6,0.76,3.6,0.88z M170.36,35.72l-0.4,1.84c-0.28,1.2,0.36,2.24,1.4,2.44l-8.28,0c1.12-0.2,2.28-1.4,2.48-2.4l0.52-2.28c-0.64,0.04-1.2,0.24-1.56,0.6c-0.4-2.28-0.12-4.48,2.52-4.8l1.8-8c0.28-1.12,0.12-2.16-0.88-2.36l10.36,0c-1,0.2-1.2,1.24-0.96,2.36c0.96,4.84,1.92,9.68,2.88,14.48c0.2,1,1.36,2.2,2.44,2.4l-8.28,0c1.04-0.2,1.68-1.24,1.44-2.44l-0.16-0.96c-1.2,0.04-3.24-0.48-5.32-0.88z M192.88,20.76c-1.92,0.36-2.84,1.92-1.84,3.48c1.44,2.32,4.56,3.56,7.24,5.56l0-6.68c0-1.12-1.28-2.16-2.32-2.36l9,0c-1.12,0.2-2.32,1.24-2.32,2.4l0,14.4c0,1.2,1.2,2.24,2.32,2.44l-9,0c2.2-0.4,2.84-2.68,1.92-4.48c-1.32-2.6-4.56-3.88-7.32-5.88l0,7.92c0,1.2,1.2,2.24,2.32,2.44l-9,0c1.04-0.2,2.32-1.24,2.32-2.4l0-14.48c0-1.12-1.28-2.16-2.32-2.36l9,0z M217.88,24.72l-5.04,0l0,4.04c3.36-1.88,5.84-2.2,6.52,2.36c-1.28-0.68-4.16,0.88-6.52,2.2l0,2.68l5.04,0c0.96,0,3.04-0.36,4.16-2.4l-0.96,6.4l-14.92,0c1.04-0.2,2.32-1.24,2.32-2.4l0-14.48c0-1.12-1.28-2.2-2.32-2.4l13.6,0c0.64,0,0.96-0.04,1.28-0.32l1,6.72c-1.12-2.04-3.2-2.4-4.16-2.4z M236.52,24.72l-2.36,0l0,12.84c0,1.2,1.2,2.24,2.32,2.44l-9,0c1.04-0.2,2.32-1.24,2.32-2.4l0-12.88l-2.4,0c-0.92,0-3,0.36-4.16,2.4l1-6.72c0.36,0.28,0.64,0.32,1.28,0.32l12.88,0c0.68,0,0.96-0.04,1.28-0.32l1.04,6.72c-1.16-2.04-3.24-2.4-4.2-2.4z"/></g></svg>
